<?xml version="1.0" encoding="UTF-8"?>
<svg id="_Слой_2" data-name="Слой 2" xmlns="http://www.w3.org/2000/svg" xmlns:xlink="http://www.w3.org/1999/xlink" viewBox="0 0 171.11 127">
  <defs>
    <style>
      .cls-1, .cls-2, .cls-3 {
        stroke-width: 0px;
      }

      .cls-1, .cls-4 {
        fill: none;
      }

      .cls-5 {
        fill: url(#_Безымянный_градиент_1083);
      }

      .cls-5, .cls-4 {
        stroke: #000;
        stroke-miterlimit: 10;
      }

      .cls-2 {
        fill: url(#_Безымянный_градиент_647);
      }

      .cls-3 {
        fill: url(#_Безымянный_градиент_1056);
      }

      .cls-4 {
        stroke-width: .5px;
      }
    </style>
    <linearGradient id="_Безымянный_градиент_1056" data-name="Безымянный градиент 1056" x1="-32.27" y1="-97.39" x2="175.51" y2="148.35" gradientUnits="userSpaceOnUse">
      <stop offset="0" stop-color="#dc2814"/>
      <stop offset=".1" stop-color="#d62613"/>
      <stop offset=".24" stop-color="#c52311"/>
      <stop offset=".39" stop-color="#aa1f0f"/>
      <stop offset=".56" stop-color="#85180c"/>
      <stop offset=".74" stop-color="#540f07"/>
      <stop offset=".92" stop-color="#1a0402"/>
      <stop offset="1" stop-color="#000"/>
    </linearGradient>
    <linearGradient id="_Безымянный_градиент_647" data-name="Безымянный градиент 647" x1="-102.08" y1="-119.71" x2="183.32" y2="113.5" gradientUnits="userSpaceOnUse">
      <stop offset="0" stop-color="#e4ae54"/>
      <stop offset=".21" stop-color="#e1ab52"/>
      <stop offset=".35" stop-color="#d8a54f"/>
      <stop offset=".47" stop-color="#c9994a"/>
      <stop offset=".58" stop-color="#b38942"/>
      <stop offset=".68" stop-color="#977337"/>
      <stop offset=".77" stop-color="#75592b"/>
      <stop offset=".86" stop-color="#4d3a1c"/>
      <stop offset=".95" stop-color="#1f170b"/>
      <stop offset="1" stop-color="#000"/>
    </linearGradient>
    <linearGradient id="_Безымянный_градиент_1083" data-name="Безымянный градиент 1083" x1="100.39" y1="70.38" x2="73.39" y2="-9.83" gradientUnits="userSpaceOnUse">
      <stop offset="0" stop-color="#d40000"/>
      <stop offset=".21" stop-color="#d10004"/>
      <stop offset=".42" stop-color="#c80010"/>
      <stop offset=".63" stop-color="#b90025"/>
      <stop offset=".85" stop-color="#a50041"/>
      <stop offset="1" stop-color="#94005b"/>
    </linearGradient>
  </defs>
  <g id="_Слой_1-2" data-name="Слой 1">
    <g>
      <path class="cls-3" d="m171.11,15.13c0,4.15-.26,8.22-.77,12.22h0c-.31,2.58-.73,5.12-1.25,7.61-.01.03-.01.05-.01.08-1.95,14.01-5.31,29.78-10.97,46.59-2.29,6.81-3.07,10.34-4.36,11.97,0,0-4.16,5.24-4.64,9.03-.01.08-.13,1.07-.06,1.58.01.05.04.29.05.61.01.1.01.21.01.31,0,11.87-28.43,21.5-63.5,21.5s-61.98-9.12-63.44-20.55c-.03-.21-.04-.42-.05-.63-.01-.14-.01-.26-.01-.32,0-.35.03-.61.03-.64.1-1.24-1.03-2.86-1.03-2.86-1.26-1.81-6.9-17.66-12-32-2.54-7.13-5.41-17.66-6.36-31.87-.28-1.15-.53-2.31-.76-3.48C.76,28.1.11,21.7.11,15.13.11,10.19.47,5.35,1.18.63h168.86c.71,4.72,1.07,9.57,1.07,14.5Z"/>
      <path class="cls-2" d="m166.11,42.63c-1.54,4.23-4.34,3.51-6,8-1.98,5.35,1.33,8.23-1,12-1.97,3.18-4.66,1.65-8,5-4.6,4.63-1.82,9.92-6,13-3.38,2.48-5.91-.45-10,2-4.98,2.99-3.26,8.61-8,11-3.7,1.86-5.81-1.05-10,1-4.14,2.03-3.29,5.47-7,7-4.04,1.66-6.13-2-12-1-4.76.81-4.7,3.45-9,4-5.44.69-6.46-3.44-13-4-6.95-.6-9.05,3.78-14,2-4.19-1.52-3.42-4.94-8-7-5.64-2.54-9.16,1.59-13-1-4.13-2.8-1.46-8.57-6-12-3.72-2.82-7.01-.07-10-3-3.16-3.1-.51-7.19-4-11-2.66-2.91-4.94-1.33-7-4-3.09-4.02,1.18-8.75-2-14-1.55-2.57-2.71-1.67-5-5-.88-1.28-3.65-5.33-3-10,.49-3.47,2.43-4.21,2-7-.34-2.23-1.67-2.37-3-5-1.69-3.36-2.31-8.64,0-12,1.91-2.79,4.81-2.79,5-5,.13-1.44-1.05-1.94-2-4-.3-.66-.51-1.33-.64-2h158.87c-.38,1.56-.52,3.25-.23,5,.85,5.05,4.56,6.08,5,11,.45,4.95-3.16,5.53-4,12-.89,6.9,2.88,8.87,1,14Z"/>
      <path class="cls-4" d="m22.74.53c-1.18,6.21-2.33,16.68.37,29.1,1.19,5.45,5.04,22.09,20,36,12.89,11.98,26.82,15.3,30,16,6.35,1.39,25.96,4.63,45-7,18.32-11.19,24.28-28.91,27-37,5.31-15.79,4.25-29.63,3.12-37.09"/>
      <path class="cls-5" d="m97.61,55.13c-2.29-3.04-5.98-7.17-11.5-10.5-9.56-5.77-15.87-3.87-21-10-2.93-3.5-5.67-9.87-3-15,2.29-4.39,7.83-6.52,12-6,3.98.5,7.91,3.56,10.05,5.23.4.31.72.58.95.77-.07-.48-.12-1.18,0-2,.25-1.74,1.09-2.92,1.5-3.5,5.34-7.49,11.5-6.5,11.5-6.5,4.94.8,7.44,5.77,8,7,2.43,5.34.46,10.88-1,15-1.36,3.83-2.42,4.65-4,8-1.74,3.69-3.6,9.35-3.5,17.5Z"/>
      <rect class="cls-1" width="171" height="127"/>
    </g>
  </g>
</svg>