<?xml version="1.0" encoding="UTF-8"?>
<svg id="_Слой_2" data-name="Слой 2" xmlns="http://www.w3.org/2000/svg" xmlns:xlink="http://www.w3.org/1999/xlink" viewBox="0 0 171.11 281">
  <defs>
    <style>
      .cls-1 {
        fill: url(#_Безымянный_градиент_1039);
      }

      .cls-1, .cls-2, .cls-3, .cls-4, .cls-5, .cls-6, .cls-7, .cls-8, .cls-9, .cls-10, .cls-11, .cls-12, .cls-13, .cls-14, .cls-15, .cls-16, .cls-17, .cls-18, .cls-19, .cls-20, .cls-21, .cls-22, .cls-23, .cls-24 {
        stroke: #000;
        stroke-miterlimit: 10;
      }

      .cls-1, .cls-24 {
        stroke-width: 2px;
      }

      .cls-2 {
        fill: url(#_Безымянный_градиент_860-3);
      }

      .cls-3 {
        fill: url(#_Безымянный_градиент_860-2);
      }

      .cls-4, .cls-25, .cls-13, .cls-23 {
        fill: none;
      }

      .cls-5 {
        fill: url(#_Безымянный_градиент_574);
      }

      .cls-5, .cls-8, .cls-11, .cls-23 {
        stroke-width: .5px;
      }

      .cls-6, .cls-7, .cls-9, .cls-10, .cls-13, .cls-15, .cls-18, .cls-22 {
        stroke-width: .25px;
      }

      .cls-7 {
        fill: #b1714a;
      }

      .cls-8 {
        fill: url(#_Безымянный_градиент_689-2);
      }

      .cls-9 {
        fill: url(#_Безымянный_градиент_717);
      }

      .cls-26 {
        fill: url(#_Безымянный_градиент_1019);
      }

      .cls-26, .cls-25, .cls-27, .cls-28, .cls-29, .cls-30, .cls-31, .cls-32 {
        stroke-width: 0px;
      }

      .cls-10 {
        fill: url(#_Безымянный_градиент_717-2);
      }

      .cls-11 {
        fill: url(#_Безымянный_градиент_689);
      }

      .cls-27 {
        fill: url(#_Безымянный_градиент_336);
      }

      .cls-12 {
        fill: url(#_Безымянный_градиент_860-4);
      }

      .cls-28 {
        fill: url(#_Безымянный_градиент_1056-2);
      }

      .cls-14 {
        fill: url(#_Безымянный_градиент_860-7);
      }

      .cls-15 {
        fill: url(#_Безымянный_градиент_712-2);
      }

      .cls-16 {
        fill: url(#_Безымянный_градиент_860-9);
      }

      .cls-17 {
        fill: url(#_Безымянный_градиент_860-6);
      }

      .cls-29 {
        fill: url(#_Безымянный_градиент_647-2);
      }

      .cls-18 {
        fill: #e50f11;
      }

      .cls-19 {
        fill: url(#_Безымянный_градиент_1083);
      }

      .cls-30 {
        fill: url(#_Безымянный_градиент_647);
      }

      .cls-31 {
        fill: url(#_Безымянный_градиент_1009);
      }

      .cls-32 {
        fill: url(#_Безымянный_градиент_1056);
      }

      .cls-20 {
        fill: url(#_Безымянный_градиент_860-8);
      }

      .cls-21 {
        fill: url(#_Безымянный_градиент_860-5);
      }

      .cls-22 {
        fill: url(#_Безымянный_градиент_712);
      }

      .cls-24 {
        fill: url(#_Безымянный_градиент_860);
      }
    </style>
    <linearGradient id="_Безымянный_градиент_1056" data-name="Безымянный градиент 1056" x1="-32.27" y1="56.61" x2="175.51" y2="302.35" gradientUnits="userSpaceOnUse">
      <stop offset="0" stop-color="#dc2814"/>
      <stop offset=".1" stop-color="#d62613"/>
      <stop offset=".24" stop-color="#c52311"/>
      <stop offset=".39" stop-color="#aa1f0f"/>
      <stop offset=".56" stop-color="#85180c"/>
      <stop offset=".74" stop-color="#540f07"/>
      <stop offset=".92" stop-color="#1a0402"/>
      <stop offset="1" stop-color="#000"/>
    </linearGradient>
    <linearGradient id="_Безымянный_градиент_647" data-name="Безымянный градиент 647" x1="-11.69" y1="42.84" x2="176.14" y2="310.49" gradientUnits="userSpaceOnUse">
      <stop offset="0" stop-color="#e4ae54"/>
      <stop offset=".21" stop-color="#e1ab52"/>
      <stop offset=".35" stop-color="#d8a54f"/>
      <stop offset=".47" stop-color="#c9994a"/>
      <stop offset=".58" stop-color="#b38942"/>
      <stop offset=".68" stop-color="#977337"/>
      <stop offset=".77" stop-color="#75592b"/>
      <stop offset=".86" stop-color="#4d3a1c"/>
      <stop offset=".95" stop-color="#1f170b"/>
      <stop offset="1" stop-color="#000"/>
    </linearGradient>
    <linearGradient id="_Безымянный_градиент_1083" data-name="Безымянный градиент 1083" x1="100.39" y1="224.38" x2="73.39" y2="144.17" gradientUnits="userSpaceOnUse">
      <stop offset="0" stop-color="#d40000"/>
      <stop offset=".21" stop-color="#d10004"/>
      <stop offset=".42" stop-color="#c80010"/>
      <stop offset=".63" stop-color="#b90025"/>
      <stop offset=".85" stop-color="#a50041"/>
      <stop offset="1" stop-color="#94005b"/>
    </linearGradient>
    <linearGradient id="_Безымянный_градиент_1056-2" data-name="Безымянный градиент 1056" x1="-25.6" y1="-26.55" x2="200.96" y2="258.71" xlink:href="#_Безымянный_градиент_1056"/>
    <linearGradient id="_Безымянный_градиент_860" data-name="Безымянный градиент 860" x1="45.47" y1="69.99" x2="124.11" y2="69.99" gradientUnits="userSpaceOnUse">
      <stop offset="0" stop-color="#e6c8b4"/>
      <stop offset=".29" stop-color="#e5c6b1"/>
      <stop offset=".44" stop-color="#e4c1a9"/>
      <stop offset=".56" stop-color="#e3b79c"/>
      <stop offset=".66" stop-color="#e1aa89"/>
      <stop offset=".76" stop-color="#df9970"/>
      <stop offset=".84" stop-color="#dc8552"/>
      <stop offset=".92" stop-color="#d86c2d"/>
      <stop offset=".99" stop-color="#d45004"/>
      <stop offset="1" stop-color="#d44d00"/>
    </linearGradient>
    <linearGradient id="_Безымянный_градиент_860-2" data-name="Безымянный градиент 860" x1="77.72" y1="90.52" x2="94.72" y2="90.52" xlink:href="#_Безымянный_градиент_860"/>
    <linearGradient id="_Безымянный_градиент_1039" data-name="Безымянный градиент 1039" x1="13.86" y1="18.27" x2="208.99" y2="120.53" gradientUnits="userSpaceOnUse">
      <stop offset="0" stop-color="#b1714a"/>
      <stop offset=".14" stop-color="#ac6e48"/>
      <stop offset=".29" stop-color="#a06642"/>
      <stop offset=".45" stop-color="#8a583a"/>
      <stop offset=".61" stop-color="#6d452d"/>
      <stop offset=".76" stop-color="#472d1d"/>
      <stop offset=".92" stop-color="#19100a"/>
      <stop offset="1" stop-color="#000"/>
    </linearGradient>
    <linearGradient id="_Безымянный_градиент_860-3" data-name="Безымянный градиент 860" x1="78.87" y1="89.76" x2="83.18" y2="89.76" xlink:href="#_Безымянный_градиент_860"/>
    <linearGradient id="_Безымянный_градиент_860-4" data-name="Безымянный градиент 860" x1="78.05" y1="92.16" x2="90.93" y2="92.16" xlink:href="#_Безымянный_градиент_860"/>
    <linearGradient id="_Безымянный_градиент_860-5" data-name="Безымянный градиент 860" x1="77.72" y1="89.49" x2="92.7" y2="89.49" xlink:href="#_Безымянный_градиент_860"/>
    <linearGradient id="_Безымянный_градиент_860-6" data-name="Безымянный градиент 860" x1="78.87" y1="89.76" x2="83.18" y2="89.76" xlink:href="#_Безымянный_градиент_860"/>
    <linearGradient id="_Безымянный_градиент_860-7" data-name="Безымянный градиент 860" x1="77.72" y1="87.93" x2="92.58" y2="87.93" xlink:href="#_Безымянный_градиент_860"/>
    <linearGradient id="_Безымянный_градиент_860-8" data-name="Безымянный градиент 860" x1="92.58" y1="88.48" x2="94.72" y2="88.48" xlink:href="#_Безымянный_градиент_860"/>
    <linearGradient id="_Безымянный_градиент_860-9" data-name="Безымянный градиент 860" x1="78.14" y1="87.48" x2="87.64" y2="92.5" xlink:href="#_Безымянный_градиент_860"/>
    <radialGradient id="_Безымянный_градиент_1019" data-name="Безымянный градиент 1019" cx="106.49" cy="88.81" fx="106.49" fy="88.81" r="5.29" gradientTransform="translate(125.91 -103.11) rotate(39.28) scale(1 1.81)" gradientUnits="userSpaceOnUse">
      <stop offset="0" stop-color="#e69ab4"/>
      <stop offset=".43" stop-color="#e59ab2"/>
      <stop offset=".59" stop-color="#e59bab"/>
      <stop offset=".7" stop-color="#e49e9f"/>
      <stop offset=".79" stop-color="#e2a18e"/>
      <stop offset=".85" stop-color="#e1a580"/>
    </radialGradient>
    <radialGradient id="_Безымянный_градиент_1009" data-name="Безымянный градиент 1009" cx="1096.24" cy="89.1" fx="1096.24" fy="89.1" r="4.21" gradientTransform="translate(810.01 -729.9) rotate(140.72) scale(1 -1.81)" gradientUnits="userSpaceOnUse">
      <stop offset="0" stop-color="#e69ab4"/>
      <stop offset=".33" stop-color="#e69db3"/>
      <stop offset=".6" stop-color="#e6a7b3"/>
      <stop offset=".85" stop-color="#e6b8b3"/>
      <stop offset="1" stop-color="#e6c7b3"/>
    </radialGradient>
    <linearGradient id="_Безымянный_градиент_689" data-name="Безымянный градиент 689" x1="99.88" y1="70.17" x2="110.01" y2="70.17" gradientUnits="userSpaceOnUse">
      <stop offset="0" stop-color="#0b4578"/>
      <stop offset=".42" stop-color="#0b4679"/>
      <stop offset=".58" stop-color="#0c4c80"/>
      <stop offset=".68" stop-color="#0f578c"/>
      <stop offset=".77" stop-color="#13679d"/>
      <stop offset=".85" stop-color="#187bb3"/>
      <stop offset=".91" stop-color="#1e93ce"/>
      <stop offset=".97" stop-color="#26b0ee"/>
      <stop offset="1" stop-color="#2ac0ff"/>
    </linearGradient>
    <linearGradient id="_Безымянный_градиент_689-2" data-name="Безымянный градиент 689" x1="57.04" y1="60.15" x2="68.83" y2="72.96" xlink:href="#_Безымянный_градиент_689"/>
    <linearGradient id="_Безымянный_градиент_712" data-name="Безымянный градиент 712" x1="57.59" y1="61.61" x2="70.37" y2="75.63" gradientUnits="userSpaceOnUse">
      <stop offset="0" stop-color="#fff"/>
      <stop offset=".18" stop-color="#fcfcfc"/>
      <stop offset=".31" stop-color="#f2f2f2"/>
      <stop offset=".43" stop-color="#e2e2e2"/>
      <stop offset=".54" stop-color="#cbcbcb"/>
      <stop offset=".64" stop-color="#aeaeae"/>
      <stop offset=".74" stop-color="#8a8a8a"/>
      <stop offset=".83" stop-color="#5f5f5f"/>
      <stop offset=".92" stop-color="#2f2f2f"/>
      <stop offset="1" stop-color="#000"/>
    </linearGradient>
    <linearGradient id="_Безымянный_градиент_717" data-name="Безымянный градиент 717" x1="66.86" y1="71.95" x2="68.45" y2="71.95" gradientUnits="userSpaceOnUse">
      <stop offset="0" stop-color="#fff"/>
      <stop offset=".25" stop-color="#fcfcfc"/>
      <stop offset=".39" stop-color="#f4f4f4"/>
      <stop offset=".5" stop-color="#e6e6e6"/>
      <stop offset=".59" stop-color="#d3d3d3"/>
      <stop offset=".68" stop-color="#bababa"/>
      <stop offset=".76" stop-color="#9b9b9b"/>
      <stop offset=".83" stop-color="#767676"/>
      <stop offset=".9" stop-color="#4b4b4b"/>
      <stop offset=".97" stop-color="#1c1c1c"/>
      <stop offset="1" stop-color="#000"/>
    </linearGradient>
    <linearGradient id="_Безымянный_градиент_712-2" data-name="Безымянный градиент 712" x1="97.16" y1="61.64" x2="109.94" y2="75.66" xlink:href="#_Безымянный_градиент_712"/>
    <linearGradient id="_Безымянный_градиент_717-2" data-name="Безымянный градиент 717" x1="106.44" y1="71.98" x2="108.02" y2="71.98" xlink:href="#_Безымянный_градиент_717"/>
    <linearGradient id="_Безымянный_градиент_647-2" data-name="Безымянный градиент 647" x1="-64.69" y1="48.27" x2="245.23" y2="254.88" xlink:href="#_Безымянный_градиент_647"/>
    <linearGradient id="_Безымянный_градиент_336" data-name="Безымянный градиент 336" x1="-43.44" y1="43.17" x2="156.91" y2="193.82" gradientUnits="userSpaceOnUse">
      <stop offset="0" stop-color="#eb0000"/>
      <stop offset=".38" stop-color="#e90000"/>
      <stop offset=".52" stop-color="#e20000"/>
      <stop offset=".61" stop-color="#d60000"/>
      <stop offset=".69" stop-color="#c50000"/>
      <stop offset=".76" stop-color="#af0000"/>
      <stop offset=".82" stop-color="#940000"/>
      <stop offset=".87" stop-color="#730000"/>
      <stop offset=".92" stop-color="#4e0000"/>
      <stop offset=".97" stop-color="#250000"/>
      <stop offset="1" stop-color="#000"/>
    </linearGradient>
    <linearGradient id="_Безымянный_градиент_574" data-name="Безымянный градиент 574" x1="8.57" y1="63.25" x2="117.09" y2="149.6" gradientUnits="userSpaceOnUse">
      <stop offset="0" stop-color="#af0000"/>
      <stop offset=".4" stop-color="#ad0000"/>
      <stop offset=".55" stop-color="#a60000"/>
      <stop offset=".65" stop-color="#9a0000"/>
      <stop offset=".73" stop-color="#890000"/>
      <stop offset=".8" stop-color="#730000"/>
      <stop offset=".87" stop-color="#580000"/>
      <stop offset=".93" stop-color="#380000"/>
      <stop offset=".98" stop-color="#130000"/>
      <stop offset="1" stop-color="#000"/>
    </linearGradient>
  </defs>
  <g id="_Слой_1-2" data-name="Слой 1">
    <path class="cls-32" d="m171.11,169.13c0,4.15-.26,8.22-.77,12.22h0c-.31,2.58-.73,5.12-1.25,7.61-.01.03-.01.05-.01.08-1.95,14.01-5.31,29.78-10.97,46.59-2.29,6.81-3.07,10.34-4.36,11.97,0,0-4.16,5.24-4.64,9.03-.01.08-.13,1.07-.06,1.58.01.05.04.29.05.61.01.1.01.21.01.31,0,11.87-28.43,21.5-63.5,21.5s-61.98-9.12-63.44-20.55c-.03-.21-.04-.42-.05-.63-.01-.14-.01-.26-.01-.32,0-.35.03-.61.03-.64.1-1.24-1.03-2.86-1.03-2.86-1.26-1.81-6.9-17.66-12-32-2.54-7.13-5.41-17.66-6.36-31.87-.28-1.15-.53-2.31-.76-3.48-1.23-6.18-1.88-12.58-1.88-19.15,0-4.94.36-9.78,1.07-14.5h168.86c.71,4.72,1.07,9.57,1.07,14.5Z"/>
    <path class="cls-30" d="m166.11,196.63c-1.54,4.23-4.34,3.51-6,8-1.98,5.35,1.33,8.23-1,12-1.97,3.18-4.66,1.65-8,5-4.6,4.63-1.82,9.92-6,13-3.38,2.48-5.91-.45-10,2-4.98,2.99-3.26,8.61-8,11-3.7,1.86-5.81-1.05-10,1-4.14,2.03-3.29,5.47-7,7-4.04,1.66-6.13-2-12-1-4.76.81-4.7,3.45-9,4-5.44.69-6.46-3.44-13-4-6.95-.6-9.05,3.78-14,2-4.19-1.52-3.42-4.94-8-7-5.64-2.54-9.16,1.59-13-1-4.13-2.8-1.46-8.57-6-12-3.72-2.82-7.01-.07-10-3-3.16-3.1-.51-7.19-4-11-2.66-2.91-4.94-1.33-7-4-3.09-4.02,1.18-8.75-2-14-1.55-2.57-2.71-1.67-5-5-.88-1.28-3.65-5.33-3-10,.49-3.47,2.43-4.21,2-7-.34-2.23-1.67-2.37-3-5-1.69-3.36-2.31-8.64,0-12,1.91-2.79,4.81-2.79,5-5,.13-1.44-1.05-1.94-2-4-.3-.66-.51-1.33-.64-2h158.87c-.38,1.56-.52,3.25-.23,5,.85,5.05,4.56,6.08,5,11,.45,4.95-3.16,5.53-4,12-.89,6.9,2.88,8.87,1,14Z"/>
    <path class="cls-23" d="m22.74,154.53c-1.18,6.21-2.33,16.68.37,29.1,1.19,5.45,5.04,22.09,20,36,12.89,11.98,26.82,15.3,30,16,6.35,1.39,25.96,4.63,45-7,18.32-11.19,24.28-28.91,27-37,5.31-15.79,4.25-29.63,3.12-37.09"/>
    <path class="cls-19" d="m97.61,209.13c-2.29-3.04-5.98-7.17-11.5-10.5-9.56-5.77-15.87-3.87-21-10-2.93-3.5-5.67-9.87-3-15,2.29-4.39,7.83-6.52,12-6,3.98.5,7.91,3.56,10.05,5.23.4.31.72.58.95.77-.07-.48-.12-1.18,0-2,.25-1.74,1.09-2.92,1.5-3.5,5.34-7.49,11.5-6.5,11.5-6.5,4.94.8,7.44,5.77,8,7,2.43,5.34.46,10.88-1,15-1.36,3.83-2.42,4.65-4,8-1.74,3.69-3.6,9.35-3.5,17.5Z"/>
    <rect class="cls-25" width="171" height="281"/>
    <path class="cls-28" d="m170.15,154.5H1.29c.53-3.6,1.26-7.12,2.18-10.56.98-3.69,2.17-7.3,3.56-10.78,1.5-3.76,3.22-7.39,5.16-10.86.63-1.17,1.3-2.32,2-3.45.01-.01.02-.02.02-.03,4.02-7.73,8.43-18.29,11.01-31.33,1.97-9.92,2.39-18.8,2.18-26.04-.1-1.26-.16-2.53-.17-3.81-.01-.22-.01-.43-.01-.65C27.22,25.79,52.96.49,84.72.49s56.71,24.53,57.48,55.07c.01.48.02.95.02,1.43,0,2.18-.13,4.33-.37,6.44.51,5.66,1.28,11.71,2.37,18.06,1.84,10.66,4.27,20.19,6.83,28.48.09.1.17.2.25.31,5.6,7.16,10.2,15.24,13.54,24.01,1.25,3.22,2.32,6.53,3.21,9.93.88,3.35,1.59,6.79,2.1,10.28Z"/>
    <path class="cls-24" d="m121.22,63.49c-3.75-5.64-8.55-8.55-11-10-4.8-2.85-5.23-1.7-11-5-3.53-2.02-7.01-4.06-10-8-2.28-3.01-3.41-5.98-4-8-1.51,3.44-4.17,8.18-9,12-5.02,3.98-7.58,3.16-15,8-3.43,2.24-8.11,5.35-12,11-1.73,2.52-2.93,4.99-3.75,7.15,2.2,20.73,18.93,36.85,39.25,36.85s37.9-16.95,39.39-38.44c-.65-1.68-1.58-3.6-2.89-5.56Zm-46-2c-.28.41-2.42-1.29-6-2-4.53-.9-7.88.47-8,0-.11-.41,2.32-1.68,5-2,.98-.12,3.49-.39,6,1,1.8.99,3.24,2.64,3,3Zm17.48,27.47c-.09.03-.18.07-.28.1-.44.16-.94.31-1.49.46-1.82.71-2.73,1.65-3.21,2.47-.68,1.14-.81,2.47-2,3-.61.27-1.38.28-2,0-1.15-.52-1.26-1.77-2-3-.55-.91-1.57-2.02-3.67-2.88-.14-.05-.26-.09-.33-.12.06-.12.38-.76,1.04-1.43.65-.67,1.62-1.36,2.96-1.57,2.12-.33,3.69.77,4,1,.09-.08,1.78-1.62,4-1,2.11.58,2.81,2.57,2.86,2.73,1.34-.43,2.12-.78,2.14-.73,0,.06-.75.5-2.02.97Zm16.52-28.47c-.23.54-3.34-1.26-8-1-4.69.27-7.76,2.45-8,2-.19-.37,1.77-2,4-3,1.2-.54,3.83-1.68,7-1,2.86.62,5.2,2.52,5,3Z"/>
    <path class="cls-4" d="m75.22,61.49c-.28.41-2.42-1.29-6-2-4.53-.9-7.88.47-8,0-.11-.41,2.32-1.68,5-2,.98-.12,3.49-.39,6,1,1.8.99,3.24,2.64,3,3Z"/>
    <path class="cls-3" d="m94.72,87.99c0,.06-.75.5-2.02.97-.09.03-.18.07-.28.1-.44.16-.94.31-1.49.46-1.82.71-2.73,1.65-3.21,2.47-.68,1.14-.81,2.47-2,3-.61.27-1.38.28-2,0-1.15-.52-1.26-1.77-2-3-.55-.91-1.57-2.02-3.67-2.88-.14-.05-.26-.09-.33-.12.06-.12.38-.76,1.04-1.43.65-.67,1.62-1.36,2.96-1.57,2.12-.33,3.69.77,4,1,.09-.08,1.78-1.62,4-1,2.11.58,2.81,2.57,2.86,2.73,1.34-.43,2.12-.78,2.14-.73Z"/>
    <path class="cls-4" d="m93.22,61.49c-.19-.37,1.77-2,4-3,1.2-.54,3.83-1.68,7-1,2.86.62,5.2,2.52,5,3-.23.54-3.34-1.26-8-1-4.69.27-7.76,2.45-8,2Z"/>
    <path class="cls-1" d="m124.22,65.99c0,1.03-.04,2.05-.11,3.06-.65-1.68-1.58-3.6-2.89-5.56-3.75-5.64-8.55-8.55-11-10-4.8-2.85-5.23-1.7-11-5-3.53-2.02-7.01-4.06-10-8-2.28-3.01-3.41-5.98-4-8-1.51,3.44-4.17,8.18-9,12-5.02,3.98-7.58,3.16-15,8-3.43,2.24-8.11,5.35-12,11-1.73,2.52-2.93,4.99-3.75,7.15-.17-1.53-.25-3.08-.25-4.65,0-22.92,17.68-41.5,39.5-41.5s39.5,18.58,39.5,41.5Z"/>
    <path class="cls-7" d="m75.22,61.49c-.28.41-2.42-1.29-6-2-4.53-.9-7.88.47-8,0-.11-.41,2.32-1.68,5-2,.98-.12,3.49-.39,6,1,1.8.99,3.24,2.64,3,3Z"/>
    <path class="cls-7" d="m109.22,60.49c-.23.54-3.34-1.26-8-1-4.69.27-7.76,2.45-8,2-.19-.37,1.77-2,4-3,1.2-.54,3.83-1.68,7-1,2.86.62,5.2,2.52,5,3Z"/>
    <path class="cls-2" d="m78.87,89.37c1.75.54,3.24.71,4.31.78-1.84-.17-3.35-.51-4.31-.78Z"/>
    <path class="cls-12" d="m90.93,89.52c-1.82.71-2.73,1.65-3.21,2.47-.68,1.14-.81,2.47-2,3-.61.27-1.38.28-2,0-1.15-.52-1.26-1.77-2-3-.55-.91-1.57-2.02-3.67-2.88.12.04.23.08.35.12.09.03.17.06.26.08.07.02.14.04.21.06,1.75.54,3.24.71,4.31.78.18.02.35.03.51.04-.27.61-.26,1.27.03,1.8.4.73,1.32,1.21,2,1,.74-.22,1.32-1.32,1.22-2.8.58-.04,1.17-.11,1.78-.2.8-.13,1.54-.29,2.21-.47Z"/>
    <path class="cls-21" d="m92.7,88.96c-.09.03-.18.07-.28.1-.44.16-.94.31-1.49.46-.67.18-1.41.34-2.21.47-.61.09-1.2.16-1.78.2-1.15.08-2.24.07-3.25,0-.16-.01-.33-.02-.51-.04-1.84-.17-3.35-.51-4.31-.78-.07-.02-.14-.04-.21-.06-.09-.02-.17-.05-.26-.08-.12-.04-.23-.08-.35-.12-.14-.05-.26-.09-.33-.12.65.2,1.36.4,2.13.55,1.43.3,2.74.42,3.87.45h.06c1.1.03,2.15-.01,3.13-.11,2.32-.23,4.29-.74,5.67-1.16.05.08.09.16.12.24Z"/>
    <path class="cls-17" d="m83.18,90.15c-1.07-.07-2.56-.24-4.31-.78.96.27,2.47.61,4.31.78Z"/>
    <path class="cls-14" d="m92.58,88.72c-1.38.42-3.35.93-5.67,1.16-.98.1-2.03.14-3.13.11h-.06c-1.13-.03-2.44-.15-3.87-.45-.77-.15-1.48-.35-2.13-.55.06-.12.38-.76,1.04-1.43.65-.67,1.62-1.36,2.96-1.57,2.12-.33,3.69.77,4,1,.09-.08,1.78-1.62,4-1,2.11.58,2.81,2.57,2.86,2.73Z"/>
    <path class="cls-20" d="m94.72,87.99c0,.06-.75.5-2.02.97-.03-.08-.07-.16-.12-.24,1.34-.43,2.12-.78,2.14-.73Z"/>
    <path class="cls-16" d="m85.72,92.99c-.68.21-1.6-.27-2-1-.29-.53-.3-1.19-.03-1.8,1.01.07,2.1.08,3.25,0,.1,1.48-.48,2.58-1.22,2.8Z"/>
    <path class="cls-26" d="m109.4,91.26c-2.4,2.85-5.65,4.07-7.25,2.72-1.6-1.35-.96-4.76,1.44-7.61,2.4-2.85,5.65-4.07,7.25-2.72,1.6,1.35.96,4.76-1.44,7.61Z"/>
    <path class="cls-31" d="m60.24,92c2.84,3.38,6.69,4.82,8.59,3.22,1.9-1.6,1.14-5.64-1.71-9.02-2.84-3.38-6.69-4.82-8.59-3.22-1.9,1.6-1.14,5.64,1.71,9.02Z"/>
    <path class="cls-13" d="m87.72,24.99c.06.87.19,2.08.5,3.5.11.48,1.12,4.91,4,9,2.52,3.58,4.19,3.65,13,10,3.83,2.76,6.48,4.69,9.5,7.5,3.74,3.48,6.36,6.77,8,9"/>
    <path class="cls-13" d="m90.72,25.99c.76.62,1.86,1.61,3,3,2.33,2.84,2.41,5.02,4,7,2.19,2.73,3.93,3.72,8,7,1.69,1.36,5.8,4.67,9,8,2.23,2.31,5.2,5.87,8,11"/>
    <path class="cls-13" d="m95.72,26.99c1.14,1.14,2.88,2.88,5,5,6.82,6.81,6.71,6.67,8,8,6.92,7.12,8.71,9.74,10,12,.94,1.64,1.59,3.06,2,4"/>
    <path class="cls-13" d="m84.72,24.99c-.13.99-.39,2.4-1,4-1.34,3.51-3.69,5.69-6,8-2.49,2.49-4.01,3.24-11,8-5.93,4.04-8.94,6.09-11,8-3.99,3.69-6.51,7.45-8,10"/>
    <path class="cls-13" d="m81.72,25.99c-.7,1.01-1.71,2.4-3,4-1.76,2.17-5.23,6.42-10,10-5.12,3.85-5.68,2.38-12,7-3.24,2.37-5.63,4.61-7,8-.64,1.59-.89,3.02-1,4"/>
    <path class="cls-13" d="m78.72,26.99c-1.08.98-2.78,2.43-5,4-6.46,4.56-8.04,3.54-12,7-2.67,2.33-2.35,3.16-8,9-1.24,1.28-2.29,2.31-3,3"/>
    <path class="cls-11" d="m109.65,72.2c-.31.87-.84,1.69-1.5,2.38-1.66.74-4.05,1.4-6.85.92-1.1-1.24-1.47-3.18-1.42-4.53.07-2.41,1.5-4.94,3.29-6.24,1.96-.2,3.73.14,5.12.5,1.46,1.68,2.22,4.56,1.36,6.97Z"/>
    <path class="cls-8" d="m69.45,73.54c-1.09,1.07-2.66,1.77-4.18,1.96-.02,0-.03-.01-.05-.01-1.82-.43-3.33-1.21-4.5-1.97-.81-1.67-.26-3.94.44-5.3.94-1.8,2.76-3.26,4.61-3.92.48.04.96.1,1.45.19,1.63.31,2.72.86,3,1,.25.13.49.27.73.41,1,2.16.54,5.62-1.5,7.64Z"/>
    <path class="cls-4" d="m76.22,73.49c-1.03.64-5.51,3.27-10.95,2.01-.02,0-.03-.01-.05-.01-1.82-.43-3.33-1.21-4.5-1.97-1.23-.81-2.07-1.61-2.5-2.03-1.5-1.46-2.44-2.95-3-4,1.71-1.13,5.8-3.52,10.55-3.19.48.04.96.1,1.45.19,1.63.31,2.72.86,3,1,.25.13.49.27.73.41,3.63,2.27,4.9,6.26,5.27,7.59Z"/>
    <path class="cls-4" d="m115.22,68.49c-.74,1.21-2.28,3.36-5,5-.43.26-1.14.69-2.07,1.09-1.66.74-4.05,1.4-6.85.92-.03,0-.05-.01-.08-.01-3.84-.68-6.2-3.1-7-4,.51-1.1,2.23-4.41,6-6,1.01-.43,2-.66,2.95-.76,1.96-.2,3.73.14,5.12.5.34.09.65.18.93.26,2.79.78,4.81,2.09,6,3Z"/>
    <path class="cls-22" d="m65.42,67.89c-.1.51-.26,1.06-.78,1.5-.58.48-1.18.47-1.58.53-.21-.2-.36-.44-.41-.71-.18-1.01,1.21-2.17,2.17-1.81.23.09.45.27.6.5Z"/>
    <path class="cls-9" d="m68.45,71.74c.03.5-.55.95-1.09.91-.17-.02-.35-.07-.5-.17.1-.27.27-.56.59-.82.26-.22.51-.34.75-.4.14.13.23.3.25.49Z"/>
    <path class="cls-6" d="m68.2,71.25s0,0,0,0c0,0,0,0,0,0,0,0-.02.01-.12.04-.03.01-.08.03-.14.05-.16.07-.32.17-.49.31-.15.12-.26.25-.35.38-.03.04-.05.08-.07.12-.04.07-.06.12-.08.17-.04.09-.06.13-.07.15,0,0,0,0,0,0-.04.07-1.09.11-2.14-.48-.98-.55-1.9-1.61-1.67-2.07.19-.37.94,0,1.58-.53.65-.54.39-1.36.78-1.5.84-.29,2.78,3.35,2.78,3.35Z"/>
    <path class="cls-15" d="m104.99,67.93c-.1.51-.26,1.06-.78,1.5-.58.48-1.18.47-1.58.53-.21-.2-.36-.44-.41-.71-.18-1.01,1.21-2.17,2.17-1.81.23.09.45.27.6.5Z"/>
    <path class="cls-10" d="m108.02,71.77c.03.5-.55.95-1.09.91-.17-.02-.35-.07-.5-.17.1-.27.27-.56.59-.82.26-.22.51-.34.75-.4.14.13.23.3.25.49Z"/>
    <path class="cls-6" d="m107.77,71.28s0,0,0,0c0,0,0,0,0,0,0,0-.02.01-.12.04-.03.01-.08.03-.14.05-.16.07-.32.17-.49.31-.15.12-.26.25-.35.38-.03.04-.05.08-.07.12-.04.07-.06.12-.08.17-.04.09-.06.13-.07.15,0,0,0,0,0,0-.04.07-1.09.11-2.14-.48-.98-.55-1.9-1.61-1.67-2.07.19-.37.94,0,1.58-.53.65-.54.39-1.36.78-1.5.84-.29,2.78,3.35,2.78,3.35Z"/>
    <path class="cls-29" d="m167.22,148.49c-1.02,1.55-2.18,3.63-2.77,6.01H5.58c-.66-3.17.35-6.15.64-7.01.29-.85.65-1.63,1.06-2.33.46-.82.99-1.55,1.54-2.18.98-1.15,2.02-1.98,2.86-2.57.7-.47,1.26-.77,1.54-.92,1.24.24,2.79.51,4.6.74,1.73.23,3.71.42,5.89.53,2.44.14,5.13.16,8.02,0,1.88-.1,3.85-.28,5.89-.54,2.22-.29,4.52-.69,6.89-1.22,1.68-.38,3.39-.83,5.13-1.35,1.18-.35,2.38-.74,3.58-1.17,1.51-.54,2.96-1.11,4.37-1.71,1.37-.58,2.69-1.19,3.96-1.82,10.15-5.04,17.27-11.42,21.63-16.05,1.23-1.3,2.24-2.46,3.04-3.42.71.89,1.61,1.96,2.69,3.17,3.63,4.06,9.35,9.61,17.37,14.59,1.63,1.02,3.36,2.01,5.18,2.96,2.01,1.05,4.13,2.05,6.38,2.98,1.1.45,2.22.88,3.38,1.3.75.27,1.49.52,2.22.76,2.49.82,4.93,1.48,7.3,2,1.94.44,3.84.78,5.68,1.05,2.62.39,5.12.62,7.5.74,1.95.1,3.81.13,5.57.1,2.47-.05,4.74-.2,6.78-.42,1.99-.2,3.76-.46,5.27-.72,1.01-.17,1.91-.35,2.68-.51.45,1.06.91,2.12,1.36,3.18.55,1.28,1.09,2.55,1.64,3.82Z"/>
    <path class="cls-23" d="m148.36,154.5c-.36-2.39-.78-4.41-1.14-6.01"/>
    <path class="cls-23" d="m24.22,148.49c-.46,1.66-.95,3.68-1.39,6.01"/>
    <path class="cls-27" d="m164.84,134.29c-1.89.63-3.93,1.21-6.12,1.7-16.8,3.73-30.52-.78-37-3-16.29-5.58-26.8-15.36-32-21-.89-.42-2.68-1.11-5-1-1.79.08-3.17.61-4,1-11.18,8.8-21.62,13.96-29,17-10.38,4.27-19.22,7.8-31,7-5.26-.36-9.87-1.49-13.69-2.83-1.39,3.48-2.58,7.09-3.56,10.78,2.87,1.05,5.34,1.66,7.25,2.05,22.61,4.59,54.19-4.82,67-22,1.41-1.89,4.35-6.24,8-6,4.35.28,5.84,6.84,11,13,5.5,6.56,12.13,9.05,20,12,14.31,5.37,26.81,4.17,39,3,4.57-.44,8.71-1.07,12.33-1.77-.89-3.4-1.96-6.71-3.21-9.93Zm-156.12,8.7c-1.66,0-3-1.34-3-3s1.34-3,3-3,3,1.34,3,3-1.34,3-3,3Zm12,1c-1.66,0-3-1.34-3-3s1.34-3,3-3,3,1.34,3,3-1.34,3-3,3Zm14,0c-1.66,0-3-1.34-3-3s1.34-3,3-3,3,1.34,3,3-1.34,3-3,3Zm12-4c-1.66,0-3-1.34-3-3s1.34-3,3-3,3,1.34,3,3-1.34,3-3,3Zm12-5c-1.66,0-3-1.34-3-3s1.34-3,3-3,3,1.34,3,3-1.34,3-3,3Zm50,1c-1.66,0-3-1.34-3-3s1.34-3,3-3,3,1.34,3,3-1.34,3-3,3Zm12,5c-1.66,0-3-1.34-3-3s1.34-3,3-3,3,1.34,3,3-1.34,3-3,3Zm13,3c-1.66,0-3-1.34-3-3s1.34-3,3-3,3,1.34,3,3-1.34,3-3,3Zm13,1c-1.66,0-3-1.34-3-3s1.34-3,3-3,3,1.34,3,3-1.34,3-3,3Zm12-1c-1.66,0-3-1.34-3-3s1.34-3,3-3,3,1.34,3,3-1.34,3-3,3Z"/>
    <circle class="cls-18" cx="158.72" cy="140.99" r="3"/>
    <circle class="cls-18" cx="146.72" cy="141.99" r="3"/>
    <circle class="cls-18" cx="133.72" cy="140.99" r="3"/>
    <circle class="cls-18" cx="120.72" cy="137.99" r="3"/>
    <circle class="cls-18" cx="108.72" cy="132.99" r="3"/>
    <circle class="cls-18" cx="58.72" cy="131.99" r="3"/>
    <circle class="cls-18" cx="46.72" cy="136.99" r="3"/>
    <circle class="cls-18" cx="34.72" cy="140.99" r="3"/>
    <circle class="cls-18" cx="20.72" cy="140.99" r="3"/>
    <circle class="cls-18" cx="8.72" cy="139.99" r="3"/>
    <path class="cls-5" d="m73.22,106.49c-7.29.27-9.93,1.07-12,2-4.84,2.17-7.72,5.49-9,7-3.83,4.52-5.35,9.23-6,12,5.16.56,15.05.91,24-4,2.87-1.57,6.88-3.84,8-8,.89-3.32-.19-6.97,0-7,.2-.03.18,4.24,3,7,.49.48,1.88,1.8,4,2,2.5.23,4.86-1.19,6-3,1.43-2.27.81-4.99,1-5,.26-.01-.15,4.89,2,9,1.68,3.2,4.54,4.73,7,6,8.78,4.54,18.69,3.63,23,3-4.43-11.45-11.02-15.53-14-17-2.61-1.29-7.41-1.86-17-3-7.39-.88-13.4-1.24-20-1Z"/>
  </g>
</svg>